
<svg 
xmlns="http://www.w3.org/2000/svg" 
version="1.1" 
xmlns:xlink="http://www.w3.org/1999/xlink" 
viewBox="240 60 400 400"
style="background-image: radial-gradient(#4B4B4B, #2B2B27);">


<path fill="#7E7E7E"  d="
M 247.75 520.8
L 316.95 534.5 332 385.6 283.45 373.15
Q 248.55 443.7 247.75 520.8
M 618.25 377.4
L 554.8 394.5 570.5 539.25 644.05 531.3
Q 649.8 454.35 618.25 377.4 Z"/>

<path fill="#DDDDDD"  d="
M 554.8 544.5
L 554.8 314.4 323.95 314.4 323.95 544.5 554.8 544.5 Z"/>

<path fill="#C9B458"  d="
M 332.95 410.25
L 341.45 401.05
Q 337.5 349.85 324.65 320.85
L 280.2 377.3
Q 305.15 410.7 332.95 410.25
M 620.35 374.15
Q 610.95 361.1 554.8 314.4
L 529.45 410.8 565.4 435
Q 594.35 416.15 620.35 374.15 Z"/>

<path fill="#999999"  d="
M 455.45 95.5
Q 453.45 94.55 452.25 92.5 451.65 91.45 451.4 90.35
L 417.6 116.8 421.6 121.95 455.45 95.5 Z"/>

<path fill="#C9B458"  d="
M 464.95 85.2
Q 463.4 82.6 460.5 81.8 457.55 81.05 454.95 82.55 452.35 84.05 451.55 86.9 451.1 88.65 451.4 90.35 451.65 91.45 452.25 92.5 453.45 94.55 455.45 95.5 456.05 95.75 456.7 95.9 459.6 96.7 462.25 95.2 464.9 93.7 465.65 90.75 466.5 87.8 464.95 85.2 Z"/>

<path fill="#6D6D6D"  d="
M 544.85 350.7
L 463 350.7 467.25 450.6 550.5 450.6
Q 555.95 408.2 544.85 350.7
M 474.8 357.35
L 538.75 357.35
Q 547.85 405.85 543.4 441.5
L 474.8 441.5 474.8 357.35 Z"/>

<path fill="#6AAA64"  d="
M 538.75 357.35
L 474.8 357.35 474.8 441.5 543.4 441.5
Q 547.85 405.85 538.75 357.35 Z"/>

<g transform="matrix( 4.744781494140625, 0, 0, 5.16754150390625, 466.25,354.9) ">
<g transform="matrix( 1, 0, 0, 1, 2,2) ">
<text  writing-mode="lr"><tspan x="0" y="12.05" baseline-shift="0%" font-family="Verdana" font-weight="bold" font-size="12" fill="#FFFFFF" xml:space="preserve">W</tspan></text>
</g>
</g>

<path fill="#C9B458"  d="
M 440 373
L 430.65 373 407.4 474.5 440.8 507.85 469.9 459.55 440 373
M 472.1 337.45
L 464.85 327.5 407.75 327.5 398.95 337.4 429.65 368.15 441.35 368.15 472.1 337.45 Z"/>

<path fill="#7E7E7E"  d="
M 504.85 168.5
Q 504.85 166.85 504.75 165.3
L 504.75 164.95
Q 503.1 143.5 481.9 128 459.1 111.3 426.65 111.3 394.25 111.3 371.3 128 350.2 143.5 348.65 164.95
L 348.55 164.95 348.55 166.25
Q 348.5 167.35 348.5 168.5 348.5 169.65 348.55 170.8
L 348.55 241.45
Q 348.5 242.5 348.5 243.7 348.5 244.85 348.55 245.95
L 348.55 303.5 504.75 303.5 504.75 246.9
Q 504.85 245.25 504.85 243.7 504.85 242.05 504.75 240.5
L 504.75 171.7
Q 504.85 170.1 504.85 168.5 Z"/>

<path fill="#655634"  d="
M 348.5 136.55
L 348.5 159.15 427.3 159.15 427.3 136.55 348.5 136.55
M 527.5 153.15
L 525.35 130.75 446.9 138.35 449.1 160.8 527.5 153.15 Z"/>

<path fill="#CCCCCC"  d="
M 531.8 177.45
L 526.5 166.8 343.15 166.8 347.15 181.95 355.8 181.95 363.8 226.65 415.65 226.65 426.3 185 444.95 185 461.35 226.2 513.65 226.2 531.8 177.45 Z"/>


<path fill="#655634"  d="
M 368.25 239.5
L 368.25 282.65 504.8 282.65 504.8 239.5 368.25 239.5 Z"/>

<path fill="#CCCCCC"  d="
M 374.7 276.8
L 390.35 276.8 390.35 263.7 374.7 263.7 374.7 276.8
M 390.35 245.6
L 374.7 245.6 374.7 258.75 390.35 258.75 390.35 245.6
M 456.55 245.6
L 440.9 245.6 440.9 258.75 456.55 258.75 456.55 245.6
M 412.3 258.75
L 412.3 245.6 396.65 245.6 396.65 258.75 412.3 258.75
M 484.25 245.6
L 484.25 258.75 499.9 258.75 499.9 245.6 484.25 245.6
M 463 276.8
L 478.65 276.8 478.65 263.7 463 263.7 463 276.8
M 484.25 263.7
L 484.25 276.8 499.9 276.8 499.9 263.7 484.25 263.7
M 440.9 263.7
L 440.9 276.8 456.55 276.8 456.55 263.7 440.9 263.7
M 434.25 276.8
L 434.25 263.7 418.6 263.7 418.6 276.8 434.25 276.8
M 412.3 276.8
L 412.3 263.7 396.65 263.7 396.65 276.8 412.3 276.8
M 434.25 245.6
L 418.6 245.6 418.6 258.75 434.25 258.75 434.25 245.6
M 478.65 245.6
L 463 245.6 463 258.75 478.65 258.75 478.65 245.6 Z"/>



<circle id="eye-left" cx="396" cy="196" r="11" fill="#6D6D6D"/>

<circle id="eye-right" cx="484" cy="196" r="11" fill="#6D6D6D"/>

</svg>
